<?xml version="1.0" encoding="utf-8"?>
<!-- Generator: Adobe Illustrator 23.0.4, SVG Export Plug-In . SVG Version: 6.00 Build 0)  -->
<svg version="1.1" id="Layer_1" xmlns="http://www.w3.org/2000/svg" xmlns:xlink="http://www.w3.org/1999/xlink" x="0px" y="0px"
	 viewBox="0 0 265.7 92" style="enable-background:new 0 0 265.7 92;" xml:space="preserve">
<path d="M59.4,46.4L59.4,46.4c0-0.1,0.1-0.1,0.1-0.1c0,0,0-0.1,0-0.1c0.1-0.3,0.2-0.5,0.3-0.6c0.3-0.7,0.4-0.9,0.5-1.9
	c0.2-1.3-0.4-2-0.5-2.2c0-0.1-0.1-0.2-0.2-0.2c-0.3-0.2-0.8-0.3-1.3-0.1l-0.7,0.2c-0.2,0.1-0.6,0.1-0.9,0.2
	c-0.4,0.1-0.8,0.2-1.2,0.2c-0.8,0.2-1.8,0.4-2.8,0.6c-1,0.2-2.1,0.5-3.2,0.8c-1.1,0.3-2.2,0.5-3.3,0.8c-1.1,0.3-2.1,0.5-3,0.8
	c-0.9,0.2-1.7,0.5-2.4,0.6c-0.7,0.2-1.2,0.3-1.5,0.4c-0.3,0.1-0.7,0.3-1.1,0.5c-0.4,0.2-0.8,0.5-1.1,0.9c-0.3,0.4-0.5,0.8-0.6,1.2
	c-0.1,0.4-0.1,0.8-0.2,1.3c0,0.5,0,0.9,0.1,1.2c0.1,0.3,0.3,0.6,0.6,0.8c0.2,0.2,0.6,0.2,1.1,0.2c0.3,0,0.6,0,1-0.1
	c1-0.1,2.5-0.5,4.4-1.1c0.8-0.2,1.5-0.5,2.3-0.7c0.7-0.2,1.5-0.5,2.3-0.7c1.2-0.4,2.4-0.8,3.7-1.3c0.7-0.3,1.5-0.6,2.3-1
	c-2.8,3.1-7,6.5-12.6,10.1c-6.5,4.2-11.7,6.7-15.4,7.4c-6.6,1.3-10.7-0.4-12.5-5c-1.2-3.1-1.3-6.8-0.3-10.7
	c1.9-7.5,6.9-14.6,15-21.1c7.3-5.8,14.6-9.5,21.8-10.9c3.1-0.6,5.4-0.5,6.8,0.3c1.1,0.6,1.5,1.5,1.2,2.7c-0.7,2.8-3,5-6.9,6.7
	c-2.1,0.7-4.1,1.4-6.2,2c0,0,0,0-0.1,0c-1.1,0.7-1.8,1.7-2.1,3c-0.1,0.4,0,0.6,0.2,0.8c0.4,0.4,1.3,0.8,5.6,0
	c3.8-0.7,7.5-2.4,11.2-4.9c4.3-3,6.9-6.4,7.8-10c0.9-3.5-0.4-5.9-3.8-7.1C60.7,9.1,56.7,9,51.8,10C41.1,12.1,30.7,17.3,21,25.5
	C11.2,33.8,5.2,42.3,3,50.9C1,59,2,65,5.9,68.5c3.6,3.3,9.3,4.2,16.9,2.7c8.4-1.6,17.4-6.9,26.7-15.6c-4.3,8.3-7.9,16.5-10.8,24.4
	c-1.8,5-2.7,8-2.6,9.2c0.1,0.6,0.5,1.3,1.9,1.4c0.1,0,0.3,0,0.4,0c0.2,0,0.5,0,0.8-0.1c1-0.2,1.9-0.5,2.7-1.1c0.9-0.6,1.4-1,1.6-1.5
	c1.7-5,3.3-9.6,4.8-13.7C53.3,60.1,57.1,50.7,59.4,46.4C59.4,46.4,59.4,46.4,59.4,46.4z M263.2,2.3c-0.4-0.5-1-0.7-1.6-0.7
	c-0.6,0-1.2,0.2-1.6,0.6l-0.5,0.5c-0.3,0.3-0.8,0.7-1.4,1.2c-1.3,1.1-2.9,2.3-4.4,3.3c-0.5,0.4-1.1,0.7-1.6,1.1l0-0.1c0,0,0,0,0,0
	c0.1,0,0.2-0.2,0.2-0.3c-0.5-2-1.7-3.4-3.5-4.3c-2.3-1.1-5-1-8.1,0.5c-2.3,1.1-4.2,2.6-5.7,4.6c-1.5,2-2.2,4-2.1,6
	c0.1,2.1,1.1,3.5,2.9,3.9c1.6,0.4,3.5,0.1,5.9-0.9c1.2-0.6,2.5-1.3,3.7-2.3c-0.6,2.5-2.2,4.4-4.8,5.6c-2.4,1.1-4.5,1.4-6.3,0.7
	c-1.4-0.5-2.9-1.8-4.4-3.9c-0.4-0.6-0.7-0.5-0.9-0.4c-0.1,0-0.2,0.1-0.3,0.2l0,0c0,0,0,0-0.1,0.1c0,0.1-0.1,0.1-0.1,0.2
	c-3,4.2-5.7,7-7,7.2c-0.1,0-0.2,0-0.2,0c0,0-0.1-0.1,0-0.6c0.2-0.6,1.1-2.5,2.9-5.7c1.8-3.2,2.8-5.3,3.1-6.2c0.3-1.4,0.2-2.4-0.3-3
	c-0.6-0.6-1.6-0.8-3.2-0.5c-4,0.8-5.5,0.6-6,0.3c0.6-2.3,0.5-3.8-0.2-4.5c-0.4-0.5-1.1-0.6-2-0.4c-0.8,0.2-1.7,0.8-2.4,1.8
	c-0.7,1-1.2,2-1.5,3c-0.6,2.2-0.3,4,0.9,5.2c-0.9,1.8-2.2,3.9-3.8,6.3c-0.7,1.1-1.3,1.9-1.6,2.4c-1.7,2.3-3.7,4.5-5.9,6.6
	c4.4-17.4,4.3-18,4.2-18.3c-0.2-1.1-2.2-0.8-2.9-0.6c-1.3,0.3-2.3,0.8-2.9,1.7c-0.1,0.1-0.2,0.4-0.3,0.8c-1.5-0.9-3.3-1.2-5.3-0.8
	c-3.1,0.6-6.1,2.3-8.8,5.1c-2.7,2.7-4.5,5.7-5.4,9c-1.5,2-2.8,3.6-4,4.7c-2.1,2-4.5,3.2-7,3.7c-1.4,0.3-2.5,0.1-3.1-0.4
	c-0.6-0.5-0.9-1.3-0.9-2.5c1.2,0.2,2.5,0.2,3.9-0.1c2.3-0.5,4.5-1.5,6.3-3c2-1.7,3.4-3.7,3.9-6c0.6-2.3,0.2-4-1-5.2
	c-1.3-1.1-3.1-1.5-5.5-1c-3.1,0.6-6.1,2.3-8.8,5.1c-2.8,2.8-4.6,5.8-5.4,9.2c-0.5,1.8-0.5,3.4-0.2,4.8c-1.2,1.2-2.1,1.9-2.8,2.1
	c-0.2,0-0.3,0-0.4-0.1c-0.2-0.2-0.5-1.1,0.2-4.1c1.2-5.3,1.7-8.3,1.8-9c0.2-1.9-0.1-3.2-0.9-3.8c-0.5-0.5-1.3-0.6-2.2-0.4
	c-3.6,0.7-7.8,4.9-12.5,12.5c0.6-1.9,1-3.6,1.4-4.9c0.9-3.8,1-4.6,0.8-4.9c0,0,0-0.1,0-0.1c-0.4-0.4-1.2-0.5-2.5-0.2
	c-1.4,0.3-2.5,0.7-3.3,1.4c0,0,0,0,0,0c-0.1,0.2-0.4,0.7-1.4,3.6c-0.6,1.9-1.1,3.4-1.4,4.5c-1.5,5.8-2.3,10.7-2.4,14.6
	c0,0.1,0.1,0.2,0.2,0.3c0.7,0.1,1.4,0.1,2,0c1.8-0.3,2.2-0.7,2.4-0.9c1.7-2.9,3.3-5.9,5-8.7c4.2-7,6.2-8.7,7.2-8.9
	c0.2,0,0.2,0,0.3,0.1c0.2,0.2,0.4,0.9-0.2,3.6c-0.9,4-1.2,6.5-1.2,7.8c0.1,1.4,0.5,2.4,1.3,2.9c0.8,0.6,2,0.8,3.5,0.5
	c2.1-0.4,4.4-2,6.8-4.8c1.6,2,4.4,2.6,8.2,1.9c4.2-0.8,8.2-3.7,12-8.7c0.3,1,0.7,1.9,1.4,2.7c1.6,2,4.1,2.7,7.2,2.1
	c1.9-0.4,3.9-1.3,5.9-2.8l-0.5,2.3c-5.1,4-8.4,6.8-9.8,8.3c-3.1,3.2-5.1,6.7-6,10.3c-0.8,3.1-0.7,5.6,0.4,7.3
	c0.8,1.4,2.1,2.1,3.8,2.1c0.4,0,0.9,0,1.4-0.1c2.1-0.4,4.2-1.7,6.3-3.8c2.6-2.6,4.6-6.2,6.1-10.6c1.1-3.3,2.4-7.9,4-13.7
	c4-3.7,7.4-7.6,10.3-11.7c0.4-0.6,0.9-1.3,1.4-2.1c1.7-2.7,3-4.9,3.8-6.5c0.9,0.2,2.3,0.2,4.3,0c0.2,0,0.3,0,0.3,0
	c0,0,0.1,0.1-0.2,0.7c-2.7,4.6-4.2,7.5-4.6,9c-0.4,1.7-0.3,3.1,0.4,4.2c0.7,1.1,2,1.4,3.8,1.1c2.8-0.5,6-3.3,9.6-8.3
	c0,0.1,0.1,0.1,0.1,0.2c3.2,4.6,7.3,5.7,12.3,3.4c4-1.9,7.1-4.6,9.2-8.1c1.2-1.9,1.9-3.8,2.2-5.7c0.2-0.1,0.4-0.2,0.6-0.3
	c1-0.5,1.9-1,2.8-1.5c1.7-1,3.5-2.1,5-3.1c0.6-0.4,1.1-0.8,1.6-1.1l0.6-0.5c0,0,0.1-0.1,0.1-0.1c0.5-0.4,0.7-1,0.8-1.6
	C263.8,3.3,263.6,2.8,263.2,2.3z M165.7,27.7c0.5-1.1,1.2-2.2,2.1-3.1c1.1-1.2,2.2-2,3.3-2.2c0.9-0.2,1.5-0.1,1.8,0.2
	c0.3,0.3,0.3,0.9,0.1,1.8c-0.5,2-2.5,3.3-5.9,4c-0.7,0.1-1.2,0.2-1.6,0.2C165.6,28.2,165.7,27.9,165.7,27.7z M191,47.1
	c-1.6,6.4-3.7,9.8-6.2,10.3c-0.9,0.2-1.5,0-1.9-0.7c-0.4-0.7-0.4-1.6-0.2-2.8c0.5-2.2,1.7-4.3,3.5-6.3c1.2-1.3,3.1-3.1,5.8-5.3
	C191.6,44.3,191.3,46,191,47.1z M196.4,23.4c-1.1,4.2-3.5,6.8-7.1,7.5c-1.1,0.2-1.9-0.2-2.5-1.2c-0.5-1.1-0.6-2.5-0.2-4.2
	c0.4-1.8,1.3-3.4,2.5-4.8c1.2-1.4,2.4-2.2,3.6-2.4c0.5-0.1,1-0.2,1.4-0.2c0.9,0,1.6,0.2,2,0.7C196.9,19.6,197,21.1,196.4,23.4z
	 M243.4,13c-2.8,1.3-4,1.2-4.5,0.9c-0.3-0.2-0.5-0.6-0.5-1.1c-0.1-1.6,0.8-2.8,2.6-3.7c0.5-0.2,0.9-0.3,1.4-0.3c0.5,0,1,0.1,1.4,0.4
	c0.9,0.5,1.4,1.4,1.6,2.6C245,12.2,244.3,12.6,243.4,13z M131.8,27.8c-1.6-2-4.1-2.7-7.3-2c-3.1,0.6-6.1,2.3-8.8,5.1
	c-2.8,2.8-4.6,5.8-5.4,9.2c-0.2,0.7-0.3,1.4-0.4,2.1c-2.5,3.3-4.3,5.2-5.5,5.4c-0.2,0-0.3,0-0.3-0.1c-0.2-0.2-0.5-1.2,0.4-4.7
	l0.7-2.9c0.7-2.8,2-7.4,3.8-13.8c1.7-6.2,2.9-10.5,3.5-12.9c2.3-9.4,2.3-10.1,2.3-10.4c-0.1-0.4-0.3-0.8-0.6-1
	c-0.4-0.3-1-0.3-1.8-0.1c-0.4,0.1-1,0.4-1.8,0.9c-0.9,0.5-1.4,1-1.7,1.4c-0.9,1.6-2.6,7.3-5.2,17.4c-1.6,6.5-3.1,12.7-4.3,18.5
	c-0.3,1.4-0.5,2.7-0.7,3.8c-2.8,3.8-4.8,5.9-6.1,6.2c-0.2,0-0.3,0-0.3-0.1c-0.2-0.2-0.5-1.2,0.4-4.7l0.7-2.9c0.7-2.8,2-7.4,3.8-13.8
	c1.7-6.2,2.9-10.4,3.5-12.9C103.1,6,103,5.2,103,4.9c-0.1-0.4-0.3-0.8-0.6-1c-0.4-0.3-1-0.3-1.8-0.1c-0.4,0.1-1,0.4-1.8,0.9
	c-0.9,0.5-1.4,1-1.7,1.4c-0.9,1.6-2.6,7.3-5.2,17.4C90.2,30,88.8,36.2,87.5,42c-0.4,2.1-0.8,4-0.9,5.7c-2,2.5-3.5,3.9-4.5,4.1
	c-0.2,0-0.3,0-0.4-0.1c-0.3-0.3-0.6-1.5,0.5-6l1.6-6.6c0.9-3.5,1.1-4.2,1-4.5c-0.3-1.2-2.3-0.8-2.9-0.7c-1.3,0.2-2.2,0.8-2.8,1.6
	c0,0-0.1,0.2-0.4,0.8c-1.5-0.9-3.3-1.2-5.4-0.8c-3.1,0.6-6,2.3-8.8,5.1c-2.8,2.8-4.6,5.8-5.4,9.2c-0.8,3.4-0.4,6.1,1.2,8
	c1.3,1.5,3,2.3,5.1,2.3c0.7,0,1.3-0.1,2.1-0.2c2.6-0.5,5.3-2,7.9-4.4c0.6,1.8,2,2.5,4,2.1c2.1-0.4,4.5-2.1,7-5
	c0.2,1.2,0.7,2.1,1.3,2.6c0.6,0.4,1.3,0.5,2.1,0.4c2.4-0.5,5.2-2.6,8.2-6.4c0.1,1.8,0.6,3,1.4,3.7c0.6,0.5,1.3,0.6,2.2,0.4
	c2.5-0.5,5.4-2.8,8.6-6.9c0.3,0.6,0.6,1.1,1,1.6c1.6,2,4.1,2.7,7.2,2.1c3.1-0.6,6.1-2.3,8.9-5.1c2.8-2.8,4.6-5.8,5.4-9.2
	C133.8,32.5,133.4,29.8,131.8,27.8z M76,46.6c-1.1,4.2-3.5,6.8-7.1,7.5c-1.1,0.2-1.9-0.2-2.5-1.2c-0.5-1.1-0.6-2.5-0.2-4.2
	c0.4-1.8,1.3-3.4,2.5-4.8c1.2-1.4,2.4-2.2,3.6-2.4c0.5-0.1,1-0.2,1.4-0.2c0.9,0,1.6,0.2,2,0.7C76.5,42.8,76.6,44.4,76,46.6z M126,37
	c-0.4,1.7-1.3,3.3-2.5,4.8c-1.2,1.4-2.4,2.3-3.6,2.5c-1.1,0.2-1.9-0.2-2.5-1.2c-0.5-1.1-0.6-2.5-0.2-4.2c0.4-1.8,1.3-3.4,2.5-4.8
	c1.2-1.4,2.4-2.2,3.6-2.4c0.2,0,0.4-0.1,0.6-0.1c0.9,0,1.5,0.4,1.9,1.2C126.3,33.8,126.4,35.2,126,37z"/>
</svg>
